<?xml version="1.0" standalone="no"?><!DOCTYPE svg PUBLIC "-//W3C//DTD SVG 1.1//EN" "http://www.w3.org/Graphics/SVG/1.1/DTD/svg11.dtd"><svg t="1732267041442" class="icon" viewBox="0 0 1024 1024" version="1.1" xmlns="http://www.w3.org/2000/svg" p-id="4375" xmlns:xlink="http://www.w3.org/1999/xlink" width="200" height="200"><path d="M278.365847 199.974272h333.904813a31.844341 31.844341 0 0 1 33.636225 33.636225 31.844341 31.844341 0 0 1-33.636225 33.636225H278.365847a31.844341 31.844341 0 0 1-33.636226-33.636225 31.537161 31.537161 0 0 1 33.636226-33.636225z m0 199.974271h333.904813a33.636225 33.636225 0 0 1 0 67.272451H278.365847a33.636225 33.636225 0 0 1 0-67.272451z m0 200.588632H478.852085a33.636225 33.636225 0 0 1 0 67.272451H278.365847a33.636225 33.636225 0 0 1 0-67.272451z m524.868467-143.350732V132.701821a66.914074 66.914074 0 0 0-66.555697-66.555697H135.834262a66.914074 66.914074 0 0 0-66.555698 66.555697V890.822408a66.914074 66.914074 0 0 0 66.555698 66.555698h300.473374a33.329045 33.329045 0 0 1 33.636225 32.407504 31.690751 31.690751 0 0 1-33.636225 34.148193H135.834262a133.776951 133.776951 0 0 1-133.111395-133.111395V133.111394A133.776951 133.776951 0 0 1 135.834262 0h600.178798a133.776951 133.776951 0 0 1 133.111394 133.111394v324.484622a33.841012 33.841012 0 0 1-32.817078 33.892209 34.404176 34.404176 0 0 1-33.073062-34.199389z" p-id="4376"></path><path d="M1008.328255 802.354528a33.585029 33.585029 0 0 0-33.636226-33.636226h-415.563533a33.636225 33.636225 0 1 0 0 67.221255h415.563533a33.175455 33.175455 0 0 0 33.636226-33.585029z" p-id="4377"></path><path d="M830.573347 993.215789a34.608963 34.608963 0 0 0 24.011247-9.624978L1011.297663 826.365775a34.096996 34.096996 0 0 0 0-48.073692l-156.764265-158.709739a33.943406 33.943406 0 0 0-48.022496 48.022495l133.111395 134.544902-133.111395 133.111394a34.045799 34.045799 0 0 0 0 48.022496 35.837683 35.837683 0 0 0 24.062445 9.932158z" p-id="4378"></path></svg>